<svg width="512" height="512" viewBox="0 0 512 512" fill="none" xmlns="http://www.w3.org/2000/svg">
  <defs>
    <linearGradient id="bgGradient" x1="0%" y1="0%" x2="100%" y2="100%">
      <stop offset="0%" style="stop-color:#9333ea"/>
      <stop offset="100%" style="stop-color:#ec4899"/>
    </linearGradient>
    <linearGradient id="lotusGradient" x1="0%" y1="0%" x2="100%" y2="100%">
      <stop offset="0%" style="stop-color:#ffffff"/>
      <stop offset="100%" style="stop-color:#fce7f3"/>
    </linearGradient>
  </defs>

  <rect width="512" height="512" fill="url(#bgGradient)" rx="96"/>

  <g transform="translate(256, 290)">
    <ellipse cx="0" cy="-60" rx="22" ry="75" fill="url(#lotusGradient)" opacity="0.95"/>
    <ellipse cx="-40" cy="-40" rx="20" ry="60" fill="url(#lotusGradient)" opacity="0.85" transform="rotate(-22)"/>
    <ellipse cx="-70" cy="-15" rx="18" ry="50" fill="url(#lotusGradient)" opacity="0.7" transform="rotate(-40)"/>
    <ellipse cx="40" cy="-40" rx="20" ry="60" fill="url(#lotusGradient)" opacity="0.85" transform="rotate(22)"/>
    <ellipse cx="70" cy="-15" rx="18" ry="50" fill="url(#lotusGradient)" opacity="0.7" transform="rotate(40)"/>
    <ellipse cx="-90" cy="15" rx="15" ry="40" fill="url(#lotusGradient)" opacity="0.5" transform="rotate(-55)"/>
    <ellipse cx="90" cy="15" rx="15" ry="40" fill="url(#lotusGradient)" opacity="0.5" transform="rotate(55)"/>
  </g>

  <g transform="translate(256, 330)" fill="#ffffff" opacity="0.85">
    <circle cx="0" cy="-115" r="24"/>
    <ellipse cx="0" cy="-60" rx="30" ry="42"/>
    <ellipse cx="0" cy="5" rx="50" ry="16"/>
  </g>

  <circle cx="256" cy="155" r="7" fill="#ffffff" opacity="0.9"/>
  <circle cx="256" cy="178" r="5" fill="#ffffff" opacity="0.7"/>
  <circle cx="256" cy="196" r="4" fill="#ffffff" opacity="0.5"/>
</svg>
